<?xml version="1.0" ?><!DOCTYPE svg  PUBLIC '-//W3C//DTD SVG 1.1//EN'  'http://www.w3.org/Graphics/SVG/1.1/DTD/svg11.dtd'><svg enable-background="new 0 0 633.48 633.48" height="633.48px" id="Layer_1" version="1.1" viewBox="0 0 633.48 633.48" width="633.48px" xml:space="preserve" xmlns="http://www.w3.org/2000/svg" xmlns:xlink="http://www.w3.org/1999/xlink"><g><path d="M540.709,92.77C480.885,32.945,401.344,0,316.74,0S152.595,32.945,92.771,92.77C32.947,152.595,0,232.135,0,316.74   c0,84.604,32.946,164.144,92.771,223.968c59.824,59.824,139.365,92.772,223.969,92.772s164.145-32.948,223.969-92.772   S633.48,401.344,633.48,316.74C633.48,232.135,600.534,152.595,540.709,92.77z M612.951,316.74   c0,65.002-21.063,125.168-56.701,174.067c-1.075-1.901-3.123-3.17-5.466-3.093l-37.202,1.24   c-5.303-6.023-10.353-12.284-15.146-18.763l30.31,3.958c3.339,0.436,6.416-1.919,6.865-5.255c0.451-3.34-1.893-6.398-5.233-6.834   l-41.392-5.404c-2.672-4.084-5.237-8.211-7.674-12.39l27.626,6.993c3.267,0.828,6.596-1.146,7.434-4.407   c0.84-3.265-1.128-6.579-4.395-7.403l-38.602-9.775c-2.858-5.637-5.513-11.342-7.966-17.104l28.778,11   c3.146,1.206,6.682-0.369,7.894-3.511c1.213-3.142-0.355-6.665-3.501-7.868l-39.18-14.979c-1.597-4.462-3.076-8.95-4.439-13.464   l26.498,13.83c2.986,1.559,6.678,0.404,8.243-2.577c1.566-2.984,0.415-6.665-2.572-8.223l-36.498-19.052   c-1.103-4.608-2.089-9.239-2.956-13.885l24.555,16.635c2.787,1.89,6.586,1.162,8.479-1.621c1.896-2.787,1.171-6.576-1.618-8.467   l-33.986-23.023c-0.604-4.783-1.095-9.578-1.455-14.375l22.835,19.573c2.556,2.193,6.411,1.898,8.604-0.656   c2.198-2.555,1.905-6.404-0.652-8.595l-31.538-27.037c-0.08-4.994-0.032-9.989,0.149-14.979l19.116,20.535   c2.292,2.466,6.156,2.606,8.622,0.312c2.469-2.295,2.609-6.152,0.312-8.618l-26.955-28.958c0.489-5.118,1.132-10.222,1.897-15.309   l17.211,23.253c2.002,2.707,5.824,3.276,8.532,1.271s3.279-5.822,1.274-8.531l-24.039-32.476   c1.241-5.874,2.669-11.714,4.281-17.508l14.698,25.418c1.685,2.916,5.417,3.912,8.333,2.223c2.916-1.689,3.914-5.422,2.227-8.337   l-20.34-35.174c1.984-5.791,4.161-11.524,6.527-17.192l11.554,26.569c1.342,3.091,4.936,4.502,8.023,3.153   c3.089-1.346,4.505-4.943,3.161-8.03l-15.96-36.703c2.373-4.866,4.9-9.669,7.564-14.412l8.279,27.303   c0.977,3.226,4.383,5.041,7.605,4.056c3.223-0.982,5.045-4.394,4.066-7.615l-11.478-37.852c2.951-4.603,6.036-9.136,9.275-13.59   l4.749,26.576c0.59,3.313,3.76,5.516,7.076,4.914c3.316-0.599,5.524-3.774,4.932-7.088l-6.682-37.401   c2.396-2.919,4.859-5.794,7.386-8.63l1.491,25.988c0.192,3.359,3.077,5.923,6.441,5.717c3.364-0.2,5.936-3.093,5.741-6.453   l-1.793-31.243C579.764,161.098,612.951,235.115,612.951,316.74z M537.964,513.483c-4.578-4.082-9.021-8.321-13.335-12.691   l24.691-0.825C545.671,504.59,541.876,509.091,537.964,513.483z M106.271,108.527l-1.733,30.184   c-0.193,3.36,2.377,6.253,5.742,6.453c3.364,0.206,6.25-2.357,6.44-5.717l1.492-25.988c2.528,2.836,4.991,5.711,7.386,8.63   l-6.683,37.401c-0.593,3.313,1.616,6.489,4.932,7.088c3.316,0.602,6.487-1.601,7.077-4.914l4.748-26.576   c3.239,4.451,6.323,8.987,9.275,13.59l-11.478,37.852c-0.978,3.222,0.842,6.633,4.067,7.615c3.222,0.985,6.629-0.83,7.604-4.056   l8.28-27.303c2.662,4.743,5.191,9.546,7.563,14.409l-15.961,36.706c-1.344,3.087,0.071,6.685,3.162,8.03   c3.087,1.349,6.682-0.062,8.024-3.153l11.553-26.569c2.364,5.668,4.542,11.401,6.527,17.189l-20.34,35.177   c-1.687,2.915-0.69,6.647,2.227,8.337c2.916,1.689,6.647,0.693,8.332-2.223l14.7-25.418c1.612,5.794,3.04,11.634,4.282,17.508   l-24.04,32.476c-2.005,2.709-1.435,6.526,1.274,8.531c2.707,2.005,6.53,1.436,8.532-1.271l17.211-23.253   c0.765,5.087,1.408,10.19,1.897,15.309l-26.957,28.958c-2.295,2.466-2.155,6.323,0.314,8.618c2.466,2.294,6.328,2.153,8.622-0.312   l19.115-20.535c0.183,4.989,0.23,9.984,0.151,14.979l-31.539,27.037c-2.558,2.19-2.851,6.04-0.654,8.595   c2.195,2.555,6.05,2.85,8.606,0.656l22.835-19.576c-0.359,4.8-0.851,9.592-1.455,14.378l-33.986,23.023   c-2.79,1.891-3.515,5.68-1.618,8.467c1.893,2.783,5.69,3.511,8.479,1.621l24.555-16.635c-0.867,4.646-1.853,9.273-2.955,13.885   l-36.5,19.052c-2.987,1.558-4.139,5.238-2.571,8.223c1.564,2.981,5.257,4.136,8.243,2.577l26.498-13.83   c-1.363,4.514-2.841,9.002-4.438,13.461l-39.181,14.981c-3.148,1.203-4.716,4.727-3.501,7.868c1.211,3.142,4.747,4.717,7.893,3.511   l28.779-11c-2.453,5.762-5.108,11.467-7.966,17.104l-38.603,9.775c-3.267,0.824-5.234,4.139-4.395,7.403   c0.838,3.262,4.167,5.235,7.432,4.407l27.629-6.993c-2.438,4.179-5.002,8.306-7.674,12.39l-41.393,5.404   c-3.342,0.436-5.685,3.494-5.234,6.834c0.449,3.336,3.524,5.69,6.865,5.255l30.31-3.958c-4.794,6.476-9.843,12.739-15.146,18.763   l-37.202-1.24c-2.039-0.069-3.862,0.882-5.014,2.383C41.388,441.326,20.53,381.428,20.53,316.74   C20.53,235.646,53.295,162.07,106.271,108.527z M84.189,500.001l23.689,0.791c-4.144,4.197-8.41,8.269-12.798,12.202   C91.332,508.766,87.693,504.44,84.189,500.001z M106.1,524.778c4.845-4.352,9.547-8.858,14.106-13.516l-0.744,26.229   C114.878,533.391,110.422,529.151,106.1,524.778z M128.88,545.587c1.574-1.056,2.64-2.818,2.697-4.861l1.224-43.161   c4.028-4.66,7.925-9.446,11.671-14.36l3.327,24.65c0.449,3.34,3.522,5.693,6.865,5.256c3.341-0.436,5.684-3.494,5.234-6.834   l-5.059-37.473c0.023-0.034,0.045-0.066,0.067-0.098c3.383-5.023,6.579-10.13,9.619-15.294l6.722,26.137   c0.84,3.266,4.166,5.239,7.433,4.411s5.234-4.142,4.395-7.403l-9.97-38.771c2.469-4.832,4.808-9.712,6.994-14.636l8.857,22.95   c1.213,3.145,4.747,4.717,7.895,3.514c3.146-1.203,4.714-4.726,3.501-7.87l-13.532-35.064c1.882-5.026,3.629-10.09,5.229-15.186   l11.88,22.623c1.566,2.984,5.255,4.139,8.244,2.578c2.985-1.559,4.137-5.238,2.57-8.22l-17.885-34.062   c1.231-4.935,2.327-9.893,3.303-14.867l14.518,21.343c1.895,2.784,5.691,3.512,8.48,1.621c2.79-1.888,3.514-5.68,1.62-8.463   l-21.721-31.932c0.659-4.86,1.186-9.734,1.605-14.615l16.57,19.281c2.196,2.555,6.049,2.85,8.606,0.655   c2.557-2.19,2.851-6.04,0.654-8.595l-24.832-28.893c0.17-6.255,0.148-12.513-0.072-18.762l20.07,18.656   c2.469,2.294,6.328,2.156,8.623-0.31c2.296-2.466,2.155-6.324-0.312-8.618l-29.521-27.443c-0.47-4.98-1.071-9.946-1.787-14.901   l21.323,15.781c2.708,2.008,6.527,1.438,8.532-1.271c2.004-2.707,1.434-6.524-1.275-8.529l-31.615-23.399   c-1.221-5.957-2.622-11.883-4.206-17.763l22.536,13.046c2.917,1.689,6.647,0.695,8.334-2.22c1.685-2.916,0.689-6.65-2.228-8.338   l-33.8-19.569c-2.061-6.164-4.323-12.272-6.79-18.31l24.206,10.56c3.09,1.346,6.682-0.063,8.024-3.153   c1.344-3.088-0.073-6.685-3.16-8.031l-36.415-15.884c-2.476-5.144-5.105-10.228-7.887-15.242l25.686,7.836   c3.224,0.985,6.627-0.831,7.605-4.053s-0.844-6.633-4.067-7.615l-38.489-11.746c-3.374-5.292-6.922-10.496-10.652-15.603   l27.993,5.072c3.318,0.598,6.485-1.602,7.077-4.918c0.593-3.313-1.616-6.487-4.932-7.089l-41.388-7.495   c-2.712-3.265-5.505-6.481-8.373-9.648l29.333,1.772c3.365,0.203,6.248-2.357,6.441-5.72s-2.377-6.252-5.741-6.455l-30.862-1.861   c51.306-42.57,117.148-68.196,188.867-68.196c71.688,0,137.505,25.604,188.8,68.142l-31.768,1.916   c-3.364,0.203-5.936,3.093-5.743,6.455s3.076,5.923,6.441,5.72l29.335-1.772c-2.868,3.167-5.66,6.384-8.373,9.648l-41.39,7.495   c-3.315,0.602-5.523,3.775-4.932,7.089c0.593,3.316,3.761,5.516,7.077,4.918l27.994-5.072c-3.731,5.106-7.278,10.311-10.652,15.603   l-38.49,11.746c-3.223,0.982-5.043,4.394-4.065,7.615c0.977,3.222,4.382,5.038,7.605,4.053l25.687-7.836   c-2.783,5.015-5.412,10.099-7.888,15.242l-36.415,15.884c-3.089,1.347-4.504,4.943-3.16,8.031c1.343,3.09,4.935,4.499,8.025,3.153   l24.206-10.56c-2.466,6.037-4.729,12.146-6.789,18.31l-33.802,19.569c-2.916,1.688-3.912,5.422-2.227,8.338   c1.687,2.915,5.416,3.909,8.333,2.22l22.537-13.049c-1.584,5.883-2.984,11.809-4.206,17.766l-31.616,23.399   c-2.708,2.005-3.279,5.822-1.274,8.529c2.003,2.709,5.822,3.279,8.532,1.271l21.322-15.781c-0.716,4.952-1.317,9.921-1.787,14.901   l-29.521,27.443c-2.469,2.294-2.608,6.152-0.313,8.618c2.295,2.466,6.156,2.604,8.625,0.31l20.07-18.656   c-0.219,6.246-0.242,12.504-0.07,18.762l-24.833,28.893c-2.197,2.555-1.903,6.404,0.653,8.595c2.559,2.194,6.411,1.899,8.608-0.655   l16.571-19.281c0.418,4.878,0.945,9.752,1.604,14.615l-21.721,31.932c-1.895,2.783-1.17,6.575,1.618,8.463   c2.789,1.891,6.586,1.163,8.481-1.621l14.518-21.346c0.977,4.975,2.071,9.936,3.304,14.87l-17.886,34.062   c-1.566,2.981-0.415,6.661,2.571,8.22c2.987,1.561,6.677,0.406,8.244-2.578l11.88-22.626c1.6,5.099,3.347,10.159,5.228,15.188   l-13.532,35.064c-1.213,3.145,0.354,6.667,3.501,7.87c3.148,1.203,6.681-0.369,7.895-3.514l8.857-22.953   c2.186,4.927,4.525,9.804,6.994,14.636l-9.97,38.773c-0.839,3.262,1.128,6.575,4.394,7.403c3.268,0.828,6.594-1.146,7.434-4.411   l6.722-26.14c3.04,5.167,6.238,10.271,9.62,15.297c0.021,0.031,0.045,0.063,0.066,0.095l-5.06,37.476   c-0.451,3.34,1.893,6.398,5.234,6.834c3.341,0.438,6.414-1.916,6.865-5.256l3.327-24.65c3.746,4.914,7.641,9.7,11.671,14.36   l1.223,43.161c0.066,2.279,1.387,4.201,3.27,5.185c-51.099,41.874-116.393,67.04-187.458,67.04   C245.49,612.95,180.038,587.658,128.88,545.587z M513.069,538.334l-0.768-27.068c4.721,4.82,9.593,9.487,14.621,13.98   C522.447,529.756,517.823,534.118,513.069,538.334z"/></g></svg>
